<svg xmlns="http://www.w3.org/2000/svg" xmlns:xlink="http://www.w3.org/1999/xlink" width="1920" zoomAndPan="magnify" viewBox="0 0 1440 809.999993" height="1080" preserveAspectRatio="xMidYMid meet" version="1.0"><defs><clipPath id="e860f5995e"><path d="M 1123.941406 436.804688 L 1390.0625 436.804688 L 1390.0625 681.304688 L 1123.941406 681.304688 Z M 1123.941406 436.804688 " clip-rule="nonzero"/></clipPath><clipPath id="bda72aed54"><path d="M 1123.941406 436.804688 L 1390.0625 436.804688 L 1390.0625 681.304688 L 1123.941406 681.304688 Z M 1123.941406 436.804688 " clip-rule="nonzero"/></clipPath><clipPath id="5b0556e01b"><path d="M 1048 379 L 1080 379 L 1080 425 L 1048 425 Z M 1048 379 " clip-rule="nonzero"/></clipPath><clipPath id="e0b7531778"><path d="M 1000.667969 357.101562 L 1146.660156 286.890625 L 1197.695312 393.007812 L 1051.699219 463.21875 Z M 1000.667969 357.101562 " clip-rule="nonzero"/></clipPath><clipPath id="b30fbed77b"><path d="M 1000.667969 357.101562 L 1146.660156 286.890625 L 1197.695312 393.007812 L 1051.699219 463.21875 Z M 1000.667969 357.101562 " clip-rule="nonzero"/></clipPath><clipPath id="e3080750aa"><path d="M 1067 367 L 1097 367 L 1097 413 L 1067 413 Z M 1067 367 " clip-rule="nonzero"/></clipPath><clipPath id="689e4e58ac"><path d="M 1000.667969 357.101562 L 1146.660156 286.890625 L 1197.695312 393.007812 L 1051.699219 463.21875 Z M 1000.667969 357.101562 " clip-rule="nonzero"/></clipPath><clipPath id="9038dadcf4"><path d="M 1000.667969 357.101562 L 1146.660156 286.890625 L 1197.695312 393.007812 L 1051.699219 463.21875 Z M 1000.667969 357.101562 " clip-rule="nonzero"/></clipPath><clipPath id="243ffb0351"><path d="M 1083 362 L 1113 362 L 1113 400 L 1083 400 Z M 1083 362 " clip-rule="nonzero"/></clipPath><clipPath id="32e96444ea"><path d="M 1000.667969 357.101562 L 1146.660156 286.890625 L 1197.695312 393.007812 L 1051.699219 463.21875 Z M 1000.667969 357.101562 " clip-rule="nonzero"/></clipPath><clipPath id="53bf8394ef"><path d="M 1000.667969 357.101562 L 1146.660156 286.890625 L 1197.695312 393.007812 L 1051.699219 463.21875 Z M 1000.667969 357.101562 " clip-rule="nonzero"/></clipPath><clipPath id="2c01cced9a"><path d="M 1097 353 L 1127 353 L 1127 390 L 1097 390 Z M 1097 353 " clip-rule="nonzero"/></clipPath><clipPath id="4c16d61ebd"><path d="M 1000.667969 357.101562 L 1146.660156 286.890625 L 1197.695312 393.007812 L 1051.699219 463.21875 Z M 1000.667969 357.101562 " clip-rule="nonzero"/></clipPath><clipPath id="3c7ca95d89"><path d="M 1000.667969 357.101562 L 1146.660156 286.890625 L 1197.695312 393.007812 L 1051.699219 463.21875 Z M 1000.667969 357.101562 " clip-rule="nonzero"/></clipPath><clipPath id="b7565a860d"><path d="M 1113 338 L 1144 338 L 1144 380 L 1113 380 Z M 1113 338 " clip-rule="nonzero"/></clipPath><clipPath id="93dad28ace"><path d="M 1000.667969 357.101562 L 1146.660156 286.890625 L 1197.695312 393.007812 L 1051.699219 463.21875 Z M 1000.667969 357.101562 " clip-rule="nonzero"/></clipPath><clipPath id="3264a4a688"><path d="M 1000.667969 357.101562 L 1146.660156 286.890625 L 1197.695312 393.007812 L 1051.699219 463.21875 Z M 1000.667969 357.101562 " clip-rule="nonzero"/></clipPath><clipPath id="8bdcd4102a"><path d="M 1131 312 L 1154 312 L 1154 353 L 1131 353 Z M 1131 312 " clip-rule="nonzero"/></clipPath><clipPath id="faf9e87ca8"><path d="M 1000.667969 357.101562 L 1146.660156 286.890625 L 1197.695312 393.007812 L 1051.699219 463.21875 Z M 1000.667969 357.101562 " clip-rule="nonzero"/></clipPath><clipPath id="89e206237c"><path d="M 1000.667969 357.101562 L 1146.660156 286.890625 L 1197.695312 393.007812 L 1051.699219 463.21875 Z M 1000.667969 357.101562 " clip-rule="nonzero"/></clipPath><clipPath id="8940be9810"><path d="M 1154 358 L 1162 358 L 1162 370 L 1154 370 Z M 1154 358 " clip-rule="nonzero"/></clipPath><clipPath id="d05f2cc563"><path d="M 1000.667969 357.101562 L 1146.660156 286.890625 L 1197.695312 393.007812 L 1051.699219 463.21875 Z M 1000.667969 357.101562 " clip-rule="nonzero"/></clipPath><clipPath id="e2faaec0a0"><path d="M 1000.667969 357.101562 L 1146.660156 286.890625 L 1197.695312 393.007812 L 1051.699219 463.21875 Z M 1000.667969 357.101562 " clip-rule="nonzero"/></clipPath><clipPath id="8e1caf5af8"><path d="M 1023 296 L 1175 296 L 1175 439 L 1023 439 Z M 1023 296 " clip-rule="nonzero"/></clipPath><clipPath id="747e8243b8"><path d="M 1000.667969 357.101562 L 1146.660156 286.890625 L 1197.695312 393.007812 L 1051.699219 463.21875 Z M 1000.667969 357.101562 " clip-rule="nonzero"/></clipPath><clipPath id="ee06b80889"><path d="M 1000.667969 357.101562 L 1146.660156 286.890625 L 1197.695312 393.007812 L 1051.699219 463.21875 Z M 1000.667969 357.101562 " clip-rule="nonzero"/></clipPath></defs><rect x="-144" width="1728" fill="#ffffff" y="-80.999999" height="971.999992" fill-opacity="1"/><rect x="-144" width="1728" fill="#000000" y="-80.999999" height="971.999992" fill-opacity="1"/><g clip-path="url(#e860f5995e)"><path fill="#000000" d="M 1382.90625 499.253906 L 1382.792969 498.984375 C 1381.53125 495.839844 1380.226562 492.582031 1380.597656 489.417969 C 1380.878906 487 1382.089844 484.789062 1383.367188 482.453125 C 1383.632812 481.957031 1383.90625 481.460938 1384.167969 480.960938 C 1385.53125 478.367188 1387.21875 474.484375 1386.140625 470.695312 C 1385.527344 468.542969 1383.722656 466.640625 1381.546875 465.859375 C 1379.777344 465.21875 1378.023438 465.402344 1376.613281 466.363281 C 1374.335938 467.921875 1373.925781 470.609375 1373.570312 472.976562 C 1373.300781 474.753906 1373.046875 476.433594 1372.125 477.566406 C 1371.34375 478.523438 1370.082031 479.074219 1368.742188 479.65625 C 1367.792969 480.070312 1366.816406 480.492188 1365.90625 481.101562 C 1361.042969 484.375 1360.546875 491.234375 1362.21875 496.578125 C 1362.925781 498.863281 1363.949219 501.042969 1364.9375 503.148438 C 1366.140625 505.714844 1367.28125 508.144531 1367.902344 510.753906 C 1370.210938 520.441406 1363.527344 531.527344 1353.878906 534.007812 C 1347.8125 535.570312 1341.171875 534.148438 1334.738281 532.773438 C 1326.839844 531.089844 1318.671875 529.339844 1311.296875 532.992188 C 1300.417969 538.378906 1298.011719 552.402344 1297.539062 560.28125 C 1297.507812 560.917969 1297.476562 561.550781 1297.445312 562.195312 C 1297.238281 566.183594 1297.039062 570.3125 1295.355469 573.789062 C 1293.570312 577.472656 1289.160156 580.484375 1285.425781 579.085938 C 1281.957031 577.800781 1280.488281 573.46875 1279.917969 571.007812 C 1277.234375 559.371094 1281.503906 547.09375 1284.945312 538.871094 C 1286.09375 536.136719 1287.34375 533.378906 1288.550781 530.703125 C 1291.96875 523.164062 1295.503906 515.363281 1297.226562 507.078125 C 1301.578125 486.128906 1293.21875 463.148438 1276.421875 449.886719 C 1266.5 442.058594 1253.839844 437.5625 1239.820312 436.890625 C 1226.859375 436.261719 1213.0625 439.023438 1200.976562 444.652344 C 1187.40625 450.984375 1174.78125 460.683594 1162.738281 474.070312 C 1158.398438 478.378906 1154.527344 483.21875 1151.09375 488.398438 C 1150.449219 489.277344 1149.800781 490.160156 1149.160156 491.058594 C 1146.613281 488.726562 1144.0625 486.394531 1141.515625 484.058594 C 1136.769531 479.710938 1133.617188 480.136719 1131.808594 481.261719 C 1129.535156 482.667969 1128.984375 485.558594 1128.683594 487.109375 C 1125.183594 505.660156 1125.332031 525.25 1129.113281 543.800781 C 1122.683594 557.148438 1122.21875 576.550781 1127.886719 595.835938 C 1134.101562 616.96875 1143.851562 632.496094 1158.554688 644.710938 C 1186.242188 667.699219 1221.304688 680.785156 1257.277344 681.554688 C 1258.316406 681.574219 1259.34375 681.589844 1260.359375 681.589844 C 1271.839844 681.589844 1281.507812 680.117188 1289.828125 677.105469 C 1307.59375 670.671875 1322.964844 655.335938 1330.949219 636.074219 C 1338.035156 618.976562 1339.785156 598.765625 1336.007812 577.644531 C 1335.308594 573.726562 1334.886719 569.011719 1337.832031 567.269531 C 1339.109375 566.519531 1340.820312 566.515625 1342.460938 566.574219 C 1344.285156 566.644531 1346.167969 566.761719 1347.988281 566.878906 C 1355.082031 567.328125 1362.417969 567.796875 1369.257812 565.332031 C 1382.011719 560.746094 1388.890625 547.101562 1390.042969 535.605469 C 1391.363281 522.410156 1386.921875 509.242188 1382.90625 499.253906 " fill-opacity="1" fill-rule="nonzero"/></g><path fill="#ffffff" d="M 1205.988281 480.480469 C 1211.089844 471.648438 1211.570312 462.367188 1207.0625 459.769531 C 1202.550781 457.164062 1194.757812 462.21875 1189.65625 471.054688 C 1184.554688 479.890625 1184.074219 489.167969 1188.585938 491.769531 C 1193.09375 494.375 1200.886719 489.320312 1205.988281 480.480469 Z M 1210.972656 505.769531 C 1211.226562 504.625 1209.453125 504.808594 1209.023438 505.441406 C 1206.425781 509.320312 1203.0625 515.535156 1197.835938 511.007812 C 1194.496094 508.113281 1193.414062 503.132812 1194.890625 499.027344 C 1195.28125 497.929688 1193.519531 497.597656 1193.09375 498.5 C 1190.527344 503.90625 1191.933594 511.085938 1197.292969 514.304688 C 1203.851562 518.246094 1209.625 511.808594 1210.972656 505.769531 Z M 1245.558594 497.90625 C 1251.554688 487.527344 1252.117188 476.632812 1246.820312 473.574219 C 1241.519531 470.511719 1232.363281 476.449219 1226.371094 486.832031 C 1220.378906 497.210938 1219.808594 508.113281 1225.109375 511.171875 C 1230.40625 514.226562 1239.5625 508.292969 1245.558594 497.90625 Z M 1256.125 553.589844 C 1256.867188 554.71875 1259.085938 553.875 1258.503906 552.507812 C 1254.972656 544.222656 1249.386719 536.734375 1243.542969 529.945312 C 1239.136719 524.816406 1233.078125 516.871094 1225.28125 518.941406 C 1216.699219 521.214844 1218.179688 531.652344 1219.230469 538.195312 C 1220.007812 543.023438 1220.78125 547.855469 1221.605469 552.675781 C 1222.386719 557.28125 1222.621094 562.875 1224.609375 567.117188 C 1224.851562 567.621094 1225.925781 567.5625 1226.003906 566.953125 C 1226.460938 563.15625 1225.386719 558.933594 1224.835938 555.167969 C 1224.253906 551.179688 1223.664062 547.1875 1223.039062 543.195312 C 1222.414062 539.160156 1221.484375 535.03125 1221.273438 530.9375 C 1221.078125 527.066406 1222.238281 521.351562 1227.070312 521.0625 C 1230.863281 520.835938 1233.929688 523.878906 1236.332031 526.421875 C 1238.914062 529.160156 1241.355469 532.042969 1243.660156 535.015625 C 1248.253906 540.925781 1252.015625 547.34375 1256.125 553.589844 Z M 1321.613281 621.867188 C 1321.769531 620.601562 1319.714844 620.722656 1319.433594 621.769531 C 1315.203125 637.503906 1306.042969 651.816406 1291.878906 660.304688 C 1276.402344 669.578125 1257.144531 670.554688 1240.394531 664.277344 C 1239.574219 663.964844 1238.378906 665.207031 1239.414062 665.679688 C 1265.824219 677.675781 1298.210938 667.628906 1313.667969 643.222656 C 1317.796875 636.710938 1320.683594 629.550781 1321.613281 621.867188 Z M 1380.449219 500.246094 C 1384.355469 509.949219 1388.675781 522.722656 1387.414062 535.347656 C 1386.339844 546.007812 1380.035156 558.644531 1368.367188 562.847656 C 1362.039062 565.121094 1354.980469 564.671875 1348.152344 564.238281 C 1346.320312 564.121094 1344.417969 564.003906 1342.554688 563.933594 C 1340.613281 563.859375 1338.382812 563.875 1336.492188 564.992188 C 1332.136719 567.5625 1332.554688 573.351562 1333.40625 578.109375 C 1337.09375 598.734375 1335.398438 618.425781 1328.507812 635.066406 C 1320.800781 653.648438 1306.003906 668.433594 1288.925781 674.621094 C 1280.1875 677.78125 1269.851562 679.183594 1257.332031 678.914062 C 1221.953125 678.152344 1187.480469 665.28125 1160.25 642.671875 C 1145.960938 630.8125 1136.488281 615.691406 1130.425781 595.085938 C 1124.882812 576.230469 1125.355469 557.339844 1131.683594 544.558594 C 1131.8125 544.296875 1131.851562 543.992188 1131.792969 543.703125 C 1127.996094 525.363281 1127.820312 505.960938 1131.285156 487.605469 C 1131.585938 486.011719 1132.015625 484.242188 1133.199219 483.507812 C 1133.597656 483.257812 1134.042969 483.148438 1134.507812 483.148438 C 1136.203125 483.148438 1138.203125 484.609375 1139.730469 486.011719 C 1142.460938 488.511719 1145.191406 491.015625 1147.917969 493.511719 C 1142.175781 503.339844 1137.886719 514.128906 1134.929688 524.761719 C 1134.667969 525.714844 1136.386719 525.730469 1136.65625 524.902344 C 1139.695312 515.71875 1143.625 506.8125 1148.347656 498.375 C 1150.671875 494.207031 1153.261719 490.238281 1155.960938 486.347656 C 1170.394531 467.667969 1185.542969 454.769531 1202.09375 447.054688 C 1213.792969 441.59375 1227.152344 438.925781 1239.691406 439.53125 C 1253.160156 440.183594 1265.296875 444.480469 1274.78125 451.964844 C 1290.8125 464.621094 1298.785156 486.550781 1294.632812 506.539062 C 1292.972656 514.539062 1289.496094 522.199219 1286.144531 529.613281 C 1284.925781 532.300781 1283.664062 535.082031 1282.503906 537.847656 C 1278.921875 546.410156 1274.480469 559.222656 1277.339844 571.601562 C 1278.53125 576.75 1281.074219 580.289062 1284.507812 581.566406 C 1289.753906 583.523438 1295.460938 579.65625 1297.738281 574.941406 C 1299.652344 570.976562 1299.871094 566.582031 1300.085938 562.324219 C 1300.117188 561.691406 1300.148438 561.066406 1300.179688 560.441406 C 1300.617188 553.128906 1302.785156 540.160156 1312.46875 535.367188 C 1319.019531 532.121094 1326.390625 533.695312 1334.183594 535.359375 C 1340.914062 536.800781 1347.867188 538.289062 1354.539062 536.570312 C 1365.699219 533.699219 1373.144531 521.347656 1370.472656 510.140625 C 1369.789062 507.265625 1368.542969 504.601562 1367.328125 502.023438 C 1366.339844 499.910156 1365.40625 497.90625 1364.742188 495.789062 C 1363.410156 491.523438 1363.667969 485.796875 1367.375 483.296875 C 1368.089844 482.824219 1368.917969 482.464844 1369.800781 482.082031 C 1371.367188 481.398438 1372.992188 480.695312 1374.179688 479.234375 C 1375.550781 477.539062 1375.890625 475.324219 1376.183594 473.375 C 1376.503906 471.273438 1376.777344 469.453125 1378.105469 468.550781 C 1378.992188 467.941406 1379.980469 468.101562 1380.648438 468.347656 C 1382.03125 468.847656 1383.210938 470.082031 1383.597656 471.417969 C 1384.414062 474.292969 1382.980469 477.539062 1381.824219 479.734375 C 1381.574219 480.21875 1381.308594 480.699219 1381.039062 481.1875 C 1379.695312 483.640625 1378.3125 486.1875 1377.972656 489.105469 C 1377.523438 492.941406 1378.957031 496.511719 1380.339844 499.96875 L 1380.449219 500.246094 " fill-opacity="1" fill-rule="nonzero"/><g clip-path="url(#bda72aed54)"><path fill="#000000" d="M 1189.65625 471.054688 C 1184.554688 479.890625 1184.074219 489.167969 1188.585938 491.769531 C 1193.09375 494.375 1200.886719 489.320312 1205.988281 480.480469 C 1211.089844 471.648438 1211.570312 462.367188 1207.0625 459.769531 C 1202.550781 457.164062 1194.757812 462.21875 1189.65625 471.054688 Z M 1197.835938 511.007812 C 1194.496094 508.113281 1193.414062 503.132812 1194.890625 499.027344 C 1195.28125 497.929688 1193.519531 497.597656 1193.09375 498.5 C 1190.527344 503.90625 1191.933594 511.085938 1197.292969 514.304688 C 1203.851562 518.246094 1209.625 511.808594 1210.972656 505.769531 C 1211.226562 504.625 1209.453125 504.808594 1209.023438 505.441406 C 1206.425781 509.320312 1203.0625 515.535156 1197.835938 511.007812 Z M 1226.371094 486.832031 C 1220.378906 497.210938 1219.808594 508.113281 1225.109375 511.171875 C 1230.40625 514.226562 1239.5625 508.292969 1245.558594 497.90625 C 1251.554688 487.527344 1252.117188 476.632812 1246.820312 473.574219 C 1241.519531 470.511719 1232.363281 476.449219 1226.371094 486.832031 Z M 1243.542969 529.945312 C 1239.136719 524.816406 1233.078125 516.871094 1225.28125 518.941406 C 1216.699219 521.214844 1218.179688 531.652344 1219.230469 538.195312 C 1220.007812 543.023438 1220.78125 547.855469 1221.605469 552.675781 C 1222.386719 557.28125 1222.621094 562.875 1224.609375 567.117188 C 1224.851562 567.621094 1225.925781 567.5625 1226.003906 566.953125 C 1226.460938 563.15625 1225.386719 558.933594 1224.835938 555.167969 C 1224.253906 551.179688 1223.664062 547.1875 1223.039062 543.195312 C 1222.414062 539.160156 1221.484375 535.03125 1221.273438 530.9375 C 1221.078125 527.066406 1222.238281 521.351562 1227.070312 521.0625 C 1230.863281 520.835938 1233.929688 523.878906 1236.332031 526.421875 C 1238.914062 529.160156 1241.355469 532.042969 1243.660156 535.015625 C 1248.253906 540.925781 1252.015625 547.34375 1256.125 553.589844 C 1256.867188 554.71875 1259.085938 553.875 1258.503906 552.507812 C 1254.972656 544.222656 1249.386719 536.734375 1243.542969 529.945312 Z M 1291.878906 660.304688 C 1276.402344 669.578125 1257.144531 670.554688 1240.394531 664.277344 C 1239.574219 663.964844 1238.378906 665.207031 1239.414062 665.679688 C 1265.824219 677.675781 1298.210938 667.628906 1313.667969 643.222656 C 1317.796875 636.710938 1320.683594 629.550781 1321.613281 621.867188 C 1321.769531 620.601562 1319.714844 620.722656 1319.433594 621.769531 C 1315.203125 637.503906 1306.042969 651.816406 1291.878906 660.304688 Z M 1387.414062 535.347656 C 1388.675781 522.722656 1384.355469 509.949219 1380.449219 500.246094 L 1380.339844 499.96875 C 1378.957031 496.511719 1377.523438 492.941406 1377.972656 489.105469 C 1378.3125 486.1875 1379.695312 483.640625 1381.039062 481.1875 C 1381.308594 480.699219 1381.574219 480.21875 1381.824219 479.734375 C 1382.980469 477.539062 1384.414062 474.292969 1383.597656 471.417969 C 1383.210938 470.082031 1382.03125 468.847656 1380.648438 468.347656 C 1379.980469 468.101562 1378.992188 467.941406 1378.105469 468.550781 C 1376.777344 469.453125 1376.503906 471.273438 1376.183594 473.375 C 1375.890625 475.324219 1375.550781 477.539062 1374.179688 479.234375 C 1372.992188 480.695312 1371.367188 481.398438 1369.800781 482.082031 C 1368.917969 482.464844 1368.089844 482.824219 1367.375 483.296875 C 1363.667969 485.796875 1363.410156 491.523438 1364.742188 495.789062 C 1365.40625 497.90625 1366.339844 499.910156 1367.328125 502.023438 C 1368.542969 504.601562 1369.789062 507.265625 1370.472656 510.140625 C 1373.144531 521.347656 1365.699219 533.699219 1354.539062 536.570312 C 1347.867188 538.289062 1340.914062 536.800781 1334.183594 535.359375 C 1326.390625 533.695312 1319.019531 532.121094 1312.46875 535.367188 C 1302.785156 540.160156 1300.617188 553.128906 1300.179688 560.441406 C 1300.148438 561.066406 1300.117188 561.691406 1300.085938 562.324219 C 1299.871094 566.582031 1299.652344 570.976562 1297.738281 574.941406 C 1295.460938 579.65625 1289.753906 583.523438 1284.507812 581.566406 C 1281.074219 580.289062 1278.53125 576.75 1277.339844 571.601562 C 1274.480469 559.222656 1278.921875 546.410156 1282.503906 537.847656 C 1283.664062 535.082031 1284.925781 532.300781 1286.144531 529.613281 C 1289.496094 522.199219 1292.972656 514.539062 1294.632812 506.539062 C 1298.785156 486.550781 1290.8125 464.621094 1274.78125 451.964844 C 1265.296875 444.480469 1253.160156 440.183594 1239.691406 439.53125 C 1227.152344 438.925781 1213.792969 441.59375 1202.09375 447.054688 C 1185.542969 454.769531 1170.394531 467.667969 1155.960938 486.347656 C 1153.261719 490.238281 1150.671875 494.207031 1148.347656 498.375 C 1143.625 506.8125 1139.695312 515.71875 1136.65625 524.902344 C 1136.386719 525.730469 1134.667969 525.714844 1134.929688 524.761719 C 1137.886719 514.128906 1142.175781 503.339844 1147.917969 493.511719 C 1145.191406 491.015625 1142.460938 488.511719 1139.730469 486.011719 C 1138.203125 484.609375 1136.203125 483.148438 1134.507812 483.148438 C 1134.042969 483.148438 1133.597656 483.257812 1133.199219 483.507812 C 1132.015625 484.242188 1131.585938 486.011719 1131.285156 487.605469 C 1127.820312 505.960938 1127.996094 525.363281 1131.792969 543.703125 C 1131.851562 543.992188 1131.8125 544.296875 1131.683594 544.558594 C 1125.355469 557.339844 1124.882812 576.230469 1130.425781 595.085938 C 1136.488281 615.691406 1145.960938 630.8125 1160.25 642.671875 C 1187.480469 665.28125 1221.953125 678.152344 1257.332031 678.914062 C 1269.851562 679.183594 1280.1875 677.78125 1288.925781 674.621094 C 1306.003906 668.433594 1320.800781 653.648438 1328.507812 635.066406 C 1335.398438 618.425781 1337.09375 598.734375 1333.40625 578.109375 C 1332.554688 573.351562 1332.136719 567.5625 1336.492188 564.992188 C 1338.382812 563.875 1340.613281 563.859375 1342.554688 563.933594 C 1344.417969 564.003906 1346.320312 564.121094 1348.152344 564.238281 C 1354.980469 564.671875 1362.039062 565.121094 1368.367188 562.847656 C 1380.035156 558.644531 1386.339844 546.007812 1387.414062 535.347656 Z M 1382.90625 499.253906 C 1386.921875 509.242188 1391.363281 522.410156 1390.042969 535.605469 C 1388.890625 547.101562 1382.011719 560.746094 1369.257812 565.332031 C 1362.417969 567.796875 1355.082031 567.328125 1347.988281 566.878906 C 1346.167969 566.761719 1344.285156 566.644531 1342.460938 566.574219 C 1340.820312 566.515625 1339.109375 566.519531 1337.832031 567.269531 C 1334.886719 569.011719 1335.308594 573.726562 1336.007812 577.644531 C 1339.785156 598.765625 1338.035156 618.976562 1330.949219 636.074219 C 1322.964844 655.335938 1307.59375 670.671875 1289.828125 677.105469 C 1281.507812 680.117188 1271.839844 681.589844 1260.359375 681.589844 C 1259.34375 681.589844 1258.316406 681.574219 1257.277344 681.554688 C 1221.304688 680.785156 1186.242188 667.699219 1158.554688 644.710938 C 1143.851562 632.496094 1134.101562 616.96875 1127.886719 595.835938 C 1122.21875 576.550781 1122.683594 557.148438 1129.113281 543.800781 C 1125.332031 525.25 1125.183594 505.660156 1128.683594 487.109375 C 1128.984375 485.558594 1129.535156 482.667969 1131.808594 481.261719 C 1133.617188 480.136719 1136.769531 479.710938 1141.515625 484.058594 C 1144.0625 486.394531 1146.613281 488.726562 1149.160156 491.058594 C 1149.800781 490.160156 1150.449219 489.277344 1151.09375 488.398438 C 1154.527344 483.21875 1158.398438 478.378906 1162.734375 474.070312 C 1174.78125 460.683594 1187.40625 450.984375 1200.976562 444.652344 C 1213.0625 439.023438 1226.859375 436.261719 1239.820312 436.890625 C 1253.839844 437.5625 1266.5 442.058594 1276.421875 449.886719 C 1293.21875 463.148438 1301.578125 486.128906 1297.226562 507.078125 C 1295.503906 515.363281 1291.96875 523.164062 1288.550781 530.703125 C 1287.34375 533.378906 1286.09375 536.136719 1284.945312 538.871094 C 1281.503906 547.09375 1277.234375 559.371094 1279.917969 571.007812 C 1280.488281 573.46875 1281.957031 577.800781 1285.425781 579.085938 C 1289.160156 580.484375 1293.570312 577.472656 1295.355469 573.789062 C 1297.039062 570.3125 1297.238281 566.183594 1297.445312 562.195312 C 1297.476562 561.550781 1297.507812 560.917969 1297.539062 560.28125 C 1298.011719 552.402344 1300.417969 538.378906 1311.296875 532.992188 C 1318.671875 529.339844 1326.839844 531.089844 1334.738281 532.773438 C 1341.171875 534.148438 1347.8125 535.570312 1353.878906 534.007812 C 1363.527344 531.527344 1370.210938 520.441406 1367.902344 510.753906 C 1367.28125 508.144531 1366.140625 505.714844 1364.9375 503.148438 C 1363.949219 501.042969 1362.925781 498.863281 1362.21875 496.578125 C 1360.546875 491.234375 1361.042969 484.375 1365.90625 481.101562 C 1366.816406 480.492188 1367.792969 480.070312 1368.742188 479.65625 C 1370.082031 479.074219 1371.34375 478.523438 1372.125 477.566406 C 1373.046875 476.433594 1373.300781 474.753906 1373.570312 472.976562 C 1373.925781 470.609375 1374.335938 467.921875 1376.613281 466.363281 C 1378.023438 465.402344 1379.777344 465.21875 1381.546875 465.859375 C 1383.722656 466.640625 1385.527344 468.542969 1386.140625 470.695312 C 1387.21875 474.484375 1385.53125 478.367188 1384.167969 480.960938 C 1383.90625 481.460938 1383.632812 481.957031 1383.367188 482.453125 C 1382.089844 484.789062 1380.878906 487 1380.597656 489.417969 C 1380.226562 492.582031 1381.53125 495.839844 1382.792969 498.984375 L 1382.90625 499.253906 " fill-opacity="1" fill-rule="nonzero"/></g><g clip-path="url(#5b0556e01b)"><g clip-path="url(#e0b7531778)"><g clip-path="url(#b30fbed77b)"><path fill="#ffffff" d="M 1078.828125 412.667969 C 1073.203125 402.210938 1067.980469 391.550781 1063.160156 380.691406 C 1062.058594 378.214844 1058.105469 379.6875 1059.203125 382.160156 C 1060.652344 385.417969 1062.136719 388.660156 1063.664062 391.882812 L 1056.449219 396.226562 C 1055.066406 393.507812 1053.730469 390.765625 1052.441406 388 C 1051.296875 385.546875 1047.335938 387.003906 1048.484375 389.46875 C 1053.933594 401.183594 1060.1875 412.453125 1067.242188 423.28125 C 1068.730469 425.5625 1072.160156 423.121094 1070.6875 420.84375 C 1066.269531 414.074219 1062.171875 407.113281 1058.390625 399.96875 L 1058.4375 399.945312 L 1065.480469 395.699219 C 1068.636719 402.238281 1071.933594 408.703125 1075.375 415.101562 C 1075.917969 416.113281 1077.464844 416.195312 1078.316406 415.605469 C 1079.355469 414.898438 1079.363281 413.667969 1078.828125 412.667969 Z M 1078.828125 412.667969 " fill-opacity="1" fill-rule="nonzero"/></g></g></g><g clip-path="url(#e3080750aa)"><g clip-path="url(#689e4e58ac)"><g clip-path="url(#9038dadcf4)"><path fill="#ffffff" d="M 1071.992188 378.398438 C 1072.617188 377.101562 1074.449219 376.035156 1075.507812 375.121094 L 1080.242188 371.046875 C 1082.289062 369.285156 1079.863281 365.828125 1077.804688 367.597656 L 1072.457031 372.203125 C 1071.003906 373.453125 1069.3125 374.652344 1068.339844 376.332031 C 1066.210938 380.042969 1069.484375 384.183594 1071.195312 387.371094 L 1084.304688 411.792969 C 1084.707031 412.539062 1086.011719 412.9375 1086.765625 412.554688 C 1090.355469 410.734375 1093.582031 408.40625 1096.441406 405.570312 C 1097.25 404.769531 1096.960938 403.269531 1096.140625 402.59375 C 1095.179688 401.804688 1093.984375 402.085938 1093.164062 402.890625 C 1091.265625 404.761719 1089.164062 406.371094 1086.863281 407.71875 C 1084.328125 403 1081.796875 398.285156 1079.265625 393.570312 C 1079.613281 393.347656 1079.871094 393.046875 1080.042969 392.671875 C 1080.167969 392.40625 1080.332031 392.167969 1080.535156 391.960938 C 1080.742188 391.75 1080.972656 391.578125 1081.238281 391.445312 C 1081.5 391.316406 1081.777344 391.230469 1082.066406 391.191406 C 1082.359375 391.152344 1082.648438 391.164062 1082.933594 391.222656 C 1085.613281 391.679688 1086.28125 387.511719 1083.597656 387.050781 C 1082.992188 386.949219 1082.386719 386.929688 1081.78125 386.988281 C 1081.171875 387.046875 1080.582031 387.1875 1080.011719 387.402344 C 1079.4375 387.621094 1078.90625 387.90625 1078.410156 388.265625 C 1077.917969 388.625 1077.476562 389.039062 1077.09375 389.515625 L 1076.203125 387.859375 L 1073.308594 382.488281 C 1072.761719 381.433594 1071.390625 379.648438 1071.992188 378.398438 Z M 1071.992188 378.398438 " fill-opacity="1" fill-rule="nonzero"/></g></g></g><g clip-path="url(#243ffb0351)"><g clip-path="url(#32e96444ea)"><g clip-path="url(#53bf8394ef)"><path fill="#ffffff" d="M 1109.285156 389.984375 L 1102.214844 394.320312 C 1097.136719 384.128906 1092.222656 373.859375 1087.476562 363.507812 C 1086.347656 361.046875 1082.390625 362.515625 1083.515625 364.980469 C 1088.613281 376.09375 1093.902344 387.117188 1099.386719 398.054688 C 1100.015625 399.3125 1101.332031 399.8125 1102.585938 399.042969 L 1111.71875 393.421875 C 1114.039062 392.003906 1111.585938 388.566406 1109.285156 389.984375 Z M 1109.285156 389.984375 " fill-opacity="1" fill-rule="nonzero"/></g></g></g><g clip-path="url(#2c01cced9a)"><g clip-path="url(#4c16d61ebd)"><g clip-path="url(#3c7ca95d89)"><path fill="#ffffff" d="M 1123.699219 380.488281 C 1121.230469 381.410156 1118.925781 382.640625 1116.785156 384.179688 C 1111.074219 374.667969 1105.996094 364.824219 1101.550781 354.65625 C 1100.46875 352.171875 1096.507812 353.632812 1097.597656 356.125 C 1102.484375 367.316406 1108.121094 378.117188 1114.496094 388.53125 C 1115.054688 389.445312 1116.609375 389.742188 1117.4375 389.039062 C 1119.742188 387.050781 1122.316406 385.519531 1125.164062 384.449219 C 1127.71875 383.488281 1126.238281 379.539062 1123.699219 380.488281 Z M 1123.699219 380.488281 " fill-opacity="1" fill-rule="nonzero"/></g></g></g><g clip-path="url(#b7565a860d)"><g clip-path="url(#93dad28ace)"><g clip-path="url(#3264a4a688)"><path fill="#ffffff" d="M 1139.480469 353.332031 C 1137.859375 350.507812 1135.972656 347.878906 1133.8125 345.441406 C 1130.089844 341.296875 1124.035156 336.328125 1118.359375 340.042969 C 1115.804688 341.714844 1113.824219 344.960938 1113.460938 347.980469 C 1113.050781 351.390625 1113.929688 354.914062 1115.035156 358.117188 C 1116.378906 361.933594 1118.144531 365.542969 1120.332031 368.949219 C 1122.230469 371.941406 1124.476562 374.917969 1127.253906 377.152344 C 1130.820312 380.027344 1135.347656 380.566406 1139.167969 377.628906 C 1144.554688 373.492188 1144.457031 366.445312 1142.8125 360.480469 C 1142.089844 357.953125 1140.785156 355.574219 1139.480469 353.332031 Z M 1132.246094 375.300781 C 1132.265625 375.3125 1132.289062 375.320312 1132.308594 375.328125 C 1122.917969 373.9375 1130.957031 375.109375 1132.25 375.292969 Z M 1136.566406 374.296875 C 1135.804688 374.882812 1134.949219 375.253906 1134.003906 375.402344 C 1133.601562 375.460938 1133.203125 375.460938 1132.800781 375.402344 L 1132.421875 375.34375 L 1132.367188 375.320312 L 1132.414062 375.328125 L 1132.351562 375.3125 L 1132.273438 375.285156 C 1131.078125 374.851562 1130.710938 374.542969 1129.742188 373.738281 C 1124.988281 369.792969 1121.589844 363.566406 1119.410156 357.808594 C 1118.394531 355.128906 1117.503906 352.222656 1117.570312 349.328125 C 1117.589844 348.421875 1117.789062 347.5625 1118.175781 346.746094 C 1118.707031 345.65625 1119.617188 344.386719 1120.292969 343.855469 C 1120.507812 343.683594 1120.730469 343.527344 1120.964844 343.382812 C 1121.078125 343.328125 1121.078125 343.304688 1121.074219 343.304688 C 1121.164062 343.277344 1121.25 343.242188 1121.335938 343.207031 C 1121.921875 342.976562 1121.6875 343.039062 1122.414062 342.957031 C 1122.503906 342.945312 1122.605469 342.941406 1122.699219 342.941406 L 1122.785156 342.945312 C 1123.03125 342.964844 1123.277344 343 1123.523438 343.046875 C 1123.964844 343.109375 1124.382812 343.25 1124.773438 343.464844 C 1126.695312 344.304688 1128.753906 346.113281 1130.285156 347.777344 C 1133.972656 351.835938 1137.363281 356.773438 1138.867188 361.945312 C 1139.984375 366.03125 1140.433594 371.453125 1136.570312 374.285156 Z M 1136.566406 374.296875 " fill-opacity="1" fill-rule="nonzero"/></g></g></g><g clip-path="url(#8bdcd4102a)"><g clip-path="url(#faf9e87ca8)"><g clip-path="url(#89e206237c)"><path fill="#ffffff" d="M 1152.765625 348.917969 C 1145.933594 337.945312 1140.332031 326.378906 1135.964844 314.214844 C 1135.046875 311.652344 1131.089844 313.125 1132.007812 315.6875 C 1136.515625 328.1875 1142.28125 340.074219 1149.316406 351.347656 C 1150.757812 353.667969 1154.195312 351.214844 1152.765625 348.917969 Z M 1152.765625 348.917969 " fill-opacity="1" fill-rule="nonzero"/></g></g></g><g clip-path="url(#8940be9810)"><g clip-path="url(#d05f2cc563)"><g clip-path="url(#e2faaec0a0)"><path fill="#ffffff" d="M 1154.222656 361.382812 L 1157.609375 368.421875 C 1158.78125 370.855469 1162.742188 369.390625 1161.570312 366.953125 L 1158.183594 359.910156 C 1157.011719 357.476562 1153.046875 358.929688 1154.222656 361.382812 Z M 1154.222656 361.382812 " fill-opacity="1" fill-rule="nonzero"/></g></g></g><g clip-path="url(#8e1caf5af8)"><g clip-path="url(#747e8243b8)"><g clip-path="url(#ee06b80889)"><path fill="#ffffff" d="M 1162.886719 320.945312 C 1159.542969 314.101562 1155.886719 306.984375 1149.953125 302 C 1144.230469 297.191406 1136.785156 295.488281 1129.511719 297.085938 C 1122.09375 298.710938 1115.464844 302.816406 1109.402344 307.253906 C 1101.832031 312.796875 1094.519531 318.722656 1087.101562 324.472656 C 1073.503906 335.011719 1059.777344 345.527344 1047.789062 357.925781 C 1041.949219 363.960938 1036.570312 370.449219 1032.019531 377.511719 C 1029.730469 381.015625 1027.671875 384.652344 1025.84375 388.421875 C 1024.117188 392.039062 1022.703125 396.066406 1023.101562 400.140625 C 1023.535156 404.617188 1026.265625 408.25 1029.035156 411.605469 C 1033.066406 416.511719 1036.480469 421.894531 1040.464844 426.835938 C 1044.121094 431.359375 1048.476562 435.785156 1054.085938 437.773438 C 1067.539062 442.53125 1079.148438 431.527344 1092.191406 430.644531 C 1095.460938 430.398438 1098.550781 431.035156 1101.457031 432.558594 C 1104.660156 434.242188 1107.953125 436.289062 1111.636719 434.582031 C 1118.277344 431.507812 1118.246094 422.117188 1120.996094 416.3125 C 1123.6875 410.648438 1128.59375 406.503906 1133.734375 403.105469 C 1139.433594 399.332031 1145.578125 396.300781 1151.453125 392.820312 C 1157.214844 389.40625 1162.878906 385.480469 1167.085938 380.191406 C 1169.199219 377.511719 1170.859375 374.574219 1172.066406 371.382812 C 1173.277344 368.191406 1173.976562 364.890625 1174.171875 361.480469 C 1175.035156 347.242188 1168.996094 333.445312 1162.886719 320.945312 Z M 1164.292969 334.261719 C 1166.8125 340.472656 1168.933594 346.925781 1169.730469 353.601562 C 1170.472656 359.835938 1169.964844 366.222656 1167.277344 371.957031 C 1164.617188 377.644531 1160.039062 381.996094 1154.96875 385.558594 C 1144.464844 392.941406 1131.671875 397.304688 1122.636719 406.707031 C 1120.507812 408.910156 1118.753906 411.378906 1117.375 414.113281 C 1115.886719 417.09375 1115.21875 420.34375 1114.222656 423.5 C 1113.464844 425.910156 1112.371094 430.042969 1109.558594 430.859375 C 1107.996094 431.316406 1106.523438 430.554688 1105.1875 429.816406 C 1103.699219 428.992188 1102.261719 428.144531 1100.652344 427.582031 C 1094.320312 425.367188 1087.742188 426.632812 1081.570312 428.753906 C 1075.558594 430.820312 1069.613281 434.015625 1063.21875 434.679688 C 1051.171875 435.921875 1044.042969 424.851562 1037.890625 416.316406 C 1036.140625 413.886719 1034.371094 411.476562 1032.472656 409.164062 C 1029.871094 406.007812 1027.042969 402.578125 1027.25 398.246094 C 1027.425781 394.472656 1029.246094 390.925781 1030.957031 387.636719 C 1034.644531 380.558594 1039.257812 374.023438 1044.402344 367.941406 C 1054.90625 355.519531 1067.527344 345.117188 1080.285156 335.113281 C 1087.347656 329.578125 1094.460938 324.105469 1101.554688 318.605469 C 1107.765625 313.789062 1113.878906 308.664062 1120.8125 304.898438 C 1126.644531 301.730469 1133.546875 299.5 1140.152344 301.375 C 1147.144531 303.359375 1151.789062 309.429688 1155.273438 315.441406 C 1158.761719 321.453125 1161.6875 327.851562 1164.289062 334.261719 Z M 1164.292969 334.261719 " fill-opacity="1" fill-rule="nonzero"/></g></g></g></svg>